<?xml version="1.0" standalone="no"?>
<!DOCTYPE svg PUBLIC "-//W3C//DTD SVG 20010904//EN"
 "http://www.w3.org/TR/2001/REC-SVG-20010904/DTD/svg10.dtd">
<svg version="1.0" xmlns="http://www.w3.org/2000/svg"
 width="285.000000pt" height="285.000000pt" viewBox="0 0 285.000000 285.000000"
 preserveAspectRatio="xMidYMid meet">
<metadata>
Created by potrace 1.14, written by Peter Selinger 2001-2017
</metadata>
<g transform="translate(0.000000,285.000000) scale(0.100000,-0.100000)"
fill="#000000" stroke="none">
<path d="M6 1438 c1 -706 2 -1286 3 -1290 0 -4 640 -7 1421 -7 l1420 -1 0
1290 0 1290 -1423 0 -1423 0 2 -1282z m544 1224 c0 -2 -19 -27 -42 -55 -114
-137 -270 -327 -361 -440 -84 -104 -87 -107 -88 -75 -1 42 -1 514 0 549 l1 26
245 0 c135 0 245 -2 245 -5z m2245 -1229 l1 -1233 -246 0 c-1567 -1 -2484 1
-2488 4 -3 4 -6 1568 -3 1756 1 28 13 50 54 100 29 36 144 178 256 315 112
138 213 259 226 271 l23 21 1088 -1 1089 -1 0 -1232z"/>
<path d="M961 1798 c-128 -347 -342 -924 -351 -945 -8 -19 -18 -23 -50 -23
-29 0 -40 -4 -40 -15 0 -13 21 -15 130 -15 109 0 130 2 130 15 0 12 -13 15
-60 15 -33 0 -60 4 -60 8 0 5 27 85 60 177 33 92 60 170 60 172 0 1 74 3 164
3 l164 0 10 -27 c12 -29 112 -325 112 -329 0 -1 -12 -2 -27 -2 -72 1 -93 -2
-93 -17 0 -13 37 -15 275 -15 238 0 275 2 275 15 0 11 -11 15 -39 15 -28 0
-41 5 -46 18 -14 36 -219 595 -276 752 -33 91 -66 181 -74 200 -7 19 -24 64
-37 100 l-24 65 -70 3 -69 3 -64 -173z m48 -308 c12 -36 37 -110 55 -165 l32
-100 -148 0 c-81 0 -148 3 -148 6 0 3 20 61 45 130 25 68 54 149 65 179 10 30
24 69 30 85 l12 30 18 -50 c10 -27 27 -79 39 -115z"/>
<path d="M1793 1948 c1 -7 22 -15 47 -18 l45 -5 1 -547 1 -548 -48 0 c-39 0
-47 -3 -43 -15 9 -23 504 -23 504 0 0 11 -12 15 -45 15 l-45 0 0 550 0 550 50
0 c40 0 48 3 44 15 -5 13 -44 15 -260 15 -198 0 -253 -3 -251 -12z"/>
</g>
</svg>
